:SAMPLES-PER-SECOND 30
:FRAME-RANGE 1-564
:FULLY-SPECIFIED
:DEGREES
247
root  19.368 40.0744 7.40864 -175.778 -74.5283 178.429
RightUpLeg  -7.99289 -8.13624 -2.30928
RightLeg  12.6152 -22.6712 -1.03529
RightFoot  -4.56919 -0.0532929 0.375914
RightToes  1.21801e-010 1.2921e-014 -6.02303e-014
Spine  -4.42716 4.26117 15.0696
Spine1  5.54682 6.26634 -11.4447
HEad  13.6966 10.7064 -4.23355
LeftShoulder1  1.59917 -3.78798 -16.0393
LeftArm  -4.30561 -22.5348 -50.2975
LeftForeArm  -19.2856 -34.2877 -8.67708
LeftHand  0.00132009 4.00972 -1.57466
RightShoulder  2.31875 7.13641 15.555
RightArm  -12.721 48.9069 55.3767
RightForeArm  18.3469 7.35868 7.27861
RightHand  0.0126429 -2.64934 1.17683
LeftUpLeg  -16.0952 -8.80726 -3.61005
LeftLeg  8.31303 -7.16617 1.29093
LeftFoot  -2.40294 0.475213 -5.89322
LeftToes  1.70735e-010 3.74918e-011 3.68705e-011
248
root  19.0909 40.0711 6.91539 -176.693 -75.2641 179.764
RightUpLeg  -7.29349 -7.24233 -1.48149
RightLeg  11.9919 -24.3355 -0.689631
RightFoot  -5.26666 -0.044091 0.156943
RightToes  1.21801e-010 1.2921e-014 -6.02303e-014
Spine  -4.49793 4.44787 14.6587
Spine1  5.78393 6.32792 -10.7569
HEad  13.1006 9.69563 -3.48661
LeftShoulder1  1.58894 -3.8196 -15.7734
LeftArm  -3.96466 -23.3712 -49.8929
LeftForeArm  -19.6209 -34.4397 -8.73712
LeftHand  0.0042575 3.95071 -2.23437
RightShoulder  2.37109 7.45916 15.3614
RightArm  -13.3244 49.2931 55.0951
RightForeArm  17.868 7.20948 6.95203
RightHand  0.0216116 -2.47304 1.42895
LeftUpLeg  -15.6107 -7.48791 -3.87649
LeftLeg  5.19903 -13.3242 1.82065
LeftFoot  -2.95498 0.491995 -6.46543
LeftToes  1.70735e-010 3.74918e-011 3.68705e-011
249
root  18.8143 40.0736 6.47077 -177.871 -75.5294 -178.576
RightUpLeg  -6.65839 -6.21409 -0.528453
RightLeg  11.0775 -25.7492 -0.306798
RightFoot  -5.71282 -0.035962 -0.057176
RightToes  1.21801e-010 1.2921e-014 -6.02303e-014
Spine  -4.59486 4.67716 14.2878
Spine1  6.02292 6.52412 -10.416
HEad  12.3687 8.76293 -2.60132
LeftShoulder1  1.57099 -3.89003 -15.262
LeftArm  -4.16372 -24.1001 -49.7731
LeftForeArm  -19.7322 -34.3267 -8.70944
LeftHand  -0.00739193 4.16413 -1.58144
RightShoulder  2.36892 7.38971 15.4954
RightArm  -13.2531 49.7999 55.3841
RightForeArm  17.5095 7.11513 6.85112
RightHand  0.0185156 -2.70752 1.47825
LeftUpLeg  -15.4809 -6.71214 -3.54747
LeftLeg  4.25412 -16.0327 1.99311
LeftFoot  -2.34335 0.434053 -5.33629
LeftToes  1.70735e-010 3.74918e-011 3.68705e-011
250
root  18.5341 40.0688 6.04468 -179.783 -75.6183 -176.284
RightUpLeg  -5.90906 -5.24825 0.560796
RightLeg  10.1097 -26.8859 0.142019
RightFoot  -6.10792 -0.0194059 -0.481797
RightToes  1.21801e-010 1.2921e-014 -6.02303e-014
Spine  -4.62105 4.79088 13.7841
Spine1  6.30647 6.60862 -9.99257
HEad  11.802 7.95479 -1.3058
LeftShoulder1  1.55452 -3.96634 -14.7629
LeftArm  -4.78254 -24.562 -49.4902
LeftForeArm  -19.7745 -34.472 -8.75378
LeftHand  -0.0131705 4.3684 -1.34848
RightShoulder  2.43009 7.50864 15.8499
RightArm  -13.2976 50.3633 55.2114
RightForeArm  18.1575 6.90408 6.78049
RightHand  0.027149 -2.45412 1.6391
LeftUpLeg  -15.5682 -6.63701 -2.71877
LeftLeg  4.82381 -16.8168 2.07796
LeftFoot  -1.05832 0.475786 -5.21621
LeftToes  1.70735e-010 3.74918e-011 3.68705e-011
251
root  18.2198 40.0191 5.66894 179.209 -75.5594 -174.918
RightUpLeg  -5.68209 -4.75738 1.45112
RightLeg  10.3285 -27.3644 -0.0874797
RightFoot  -6.86937 -0.0268755 -0.504464
RightToes  1.21801e-010 1.2921e-014 -6.02303e-014
Spine  -4.84213 4.87469 13.2114
Spine1  6.65222 6.67239 -9.71905
HEad  11.4694 7.07327 0.136926
LeftShoulder1  1.5098 -3.80812 -14.5944
LeftArm  -4.81479 -25.1455 -48.9257
LeftForeArm  -19.9207 -34.906 -8.88825
LeftHand  -0.0167938 4.54538 -1.49001
RightShoulder  2.5049 7.7849 15.9782
RightArm  -14.209 50.6339 55.6887
RightForeArm  18.2121 6.54369 6.04732
RightHand  0.0348048 -2.23311 1.76232
LeftUpLeg  -15.5776 -6.32346 -2.02957
LeftLeg  4.7861 -16.9259 2.13047
LeftFoot  1.73158 0.670393 -5.94029
LeftToes  1.70735e-010 3.74918e-011 3.68705e-011
252
root  17.9048 39.9791 5.31373 178.084 -75.6647 -173.58
RightUpLeg  -5.21767 -4.4251 2.26083
RightLeg  10.3864 -27.8308 -0.263756
RightFoot  -7.62235 -0.0358391 -0.487363
RightToes  1.21801e-010 1.2921e-014 -6.02303e-014
Spine  -4.90747 4.8291 12.7265
Spine1  6.83724 6.69376 -9.79037
HEad  11.4016 5.87137 1.59104
LeftShoulder1  1.47183 -3.76024 -14.1619
LeftArm  -4.62238 -25.581 -48.7255
LeftForeArm  -19.833 -35.2517 -8.9869
LeftHand  -0.0220824 4.79199 -1.06238
RightShoulder  2.49049 7.72336 15.9727
RightArm  -15.3988 50.5277 56.6627
RightForeArm  19.0148 6.20554 5.04376
RightHand  0.070604 -2.0683 2.91353
LeftUpLeg  -16.0237 -6.27877 -1.19482
LeftLeg  6.28415 -17.1843 1.26568
LeftFoot  2.54295 0.553295 -4.67026
LeftToes  1.70735e-010 3.74918e-011 3.68705e-011
253
root  17.5346 39.9293 5.0234 178.179 -75.8156 -173.574
RightUpLeg  -4.93336 -4.5319 2.60783
RightLeg  11.1376 -27.8539 -0.756591
RightFoot  -8.46221 -0.0581315 0.0307729
RightToes  1.21801e-010 1.2921e-014 -6.02303e-014
Spine  -5.32446 4.68199 12.0754
Spine1  7.2595 6.57388 -9.71523
HEad  11.9637 4.83882 2.84671
LeftShoulder1  1.4233 -3.61557 -13.8692
LeftArm  -4.57023 -25.6896 -48.5967
LeftForeArm  -19.6742 -35.6914 -9.11158
LeftHand  -0.0252234 4.93997 -0.768581
RightShoulder  2.53701 7.85171 16.146
RightArm  -14.5872 50.2339 56.4282
RightForeArm  16.8014 6.11983 5.57067
RightHand  0.0199957 -2.97191 1.79186
LeftUpLeg  -16.3317 -8.23516 -0.820799
LeftLeg  7.91448 -15.5709 0.913333
LeftFoot  3.01305 0.171126 -1.5043
LeftToes  1.70735e-010 3.74918e-011 3.68705e-011
254
root  17.1576 39.901 4.75878 178.228 -75.6572 -173.645
RightUpLeg  -4.23181 -4.52086 2.88281
RightLeg  11.2349 -27.6144 -0.92589
RightFoot  -9.15709 -0.0654649 0.178793
RightToes  1.21801e-010 1.2921e-014 -6.02303e-014
Spine  -5.55877 4.64824 11.6861
Spine1  7.53816 6.63102 -9.89561
HEad  12.7883 3.86464 3.72852
LeftShoulder1  1.37535 -3.46134 -13.6047
LeftArm  -5.21015 -25.4659 -48.5025
LeftForeArm  -18.9959 -35.9983 -9.17225
LeftHand  -0.030654 5.24858 -0.68549
RightShoulder  2.55624 7.91876 16.1854
RightArm  -14.1878 49.5523 56.7886
RightForeArm  17.009 5.97035 5.77251
RightHand  0.0368999 -2.82643 2.43556
LeftUpLeg  -16.4494 -10.6142 -0.271559
LeftLeg  9.51605 -13.0438 0.774879
LeftFoot  2.43352 0.022325 -0.306915
LeftToes  1.70735e-010 3.74918e-011 3.68705e-011
